# xmcd
#
# Track frame offsets:
# 150
# 15365
# 34675
# 48825
# 65017
# 84942
# 99702
# 113847
# 125997
# 153940
# 168770
# 184192
# 195522
# 215647
#
# Disc length: 3085 seconds
#
#
# Revision: 3
# Processed by: cddbd v1.5.2PL0 Copyright (c) Steve Scherf et al.
# Submitted via: FreeRIP 2.942 
#
DISCID=b50c0b0e
DTITLE=Kleiton and Kledir - Coleção Obras-Primas
DYEAR=1900
DGENRE=MPB
TTITLE0=Só Peço A Deus
TTITLE1=Viração
TTITLE2=Estrela, Estrela
TTITLE3=Pampa De Luz
TTITLE4=Roda De Chimarrão
TTITLE5=Semeadura
TTITLE6=Vinho Amargo
TTITLE7=Pára, Pedro
TTITLE8=Cheio De Vida
TTITLE9=Roda Da Fortuna
TTITLE10=Cuña Pajé
TTITLE11=Morena De São Paulo
TTITLE12=Noite De São João
TTITLE13=Saiçú (Segredo Do Meu Coração)
EXTD=
EXTT0=
EXTT1=
EXTT2=
EXTT3=
EXTT4=
EXTT5=
EXTT6=
EXTT7=
EXTT8=
EXTT9=
EXTT10=
EXTT11=
EXTT12=
EXTT13=
PLAYORDER=
